<svg width="22" height="22" viewBox="0 0 22 22" fill="none" xmlns="http://www.w3.org/2000/svg">
<path d="M21.6023 9.00391C21.5606 8.77329 21.4393 8.56462 21.2594 8.41434C21.0796 8.26405 20.8527 8.18169 20.6184 8.18164H11.2C11.0686 8.1816 10.9386 8.20745 10.8172 8.25769C10.6959 8.30793 10.5857 8.38159 10.4928 8.47446C10.3999 8.56732 10.3263 8.67757 10.276 8.79891C10.2258 8.92026 10.1999 9.05031 10.2 9.18164V13.0498C10.1999 13.1811 10.2258 13.3112 10.276 13.4325C10.3263 13.5539 10.3999 13.6641 10.4928 13.757C10.5857 13.8498 10.6959 13.9235 10.8172 13.9737C10.9386 14.024 11.0686 14.0498 11.2 14.0498H15.1624C14.88 14.5264 14.493 14.9324 14.0305 15.2373C13.1854 15.7731 12.2004 16.0464 11.2 16.0225C10.1624 16.0106 9.15505 15.672 8.32096 15.0549C7.48686 14.4377 6.86849 13.5734 6.55373 12.5847L6.55344 12.583C6.20317 11.5564 6.20317 10.4426 6.55344 9.416L6.55368 9.41435C6.86866 8.42585 7.48712 7.56175 8.3212 6.94479C9.15529 6.32782 10.1626 5.98938 11.2 5.97754C11.7764 5.96431 12.3497 6.06508 12.8871 6.27406C13.4245 6.48304 13.9152 6.79612 14.3313 7.19531C14.5202 7.37587 14.7723 7.47533 15.0337 7.47241C15.295 7.46949 15.5448 7.36443 15.7297 7.17969L18.5979 4.31152C18.6929 4.21662 18.7678 4.10354 18.8182 3.97904C18.8685 3.85454 18.8932 3.72116 18.8908 3.58689C18.8885 3.45262 18.8591 3.3202 18.8044 3.19755C18.7497 3.0749 18.6708 2.96453 18.5725 2.87305C16.5766 1.00175 13.9357 -0.0273902 11.2 -1.06834e-06C9.15991 -0.00603697 7.15873 0.558011 5.4221 1.62854C3.68547 2.69906 2.28247 4.23349 1.37131 6.05878L1.36984 6.06055C0.59737 7.59231 0.19659 9.28449 0.199972 11C0.202406 12.7148 0.60289 14.4057 1.36989 15.9394L1.37136 15.9412C2.28252 17.7665 3.68551 19.3009 5.42213 20.3714C7.15875 21.442 9.15992 22.006 11.2 22C13.8853 22.068 16.4951 21.1067 18.4947 19.313L18.4954 19.3125L18.4962 19.3117L18.4964 19.3115L18.4964 19.3114C19.5803 18.2688 20.434 17.011 21.003 15.6188C21.5719 14.2266 21.8434 12.7309 21.8001 11.2275C21.8005 10.4819 21.7343 9.73775 21.6023 9.00391ZM11.2 2C13.071 1.98179 14.8979 2.56854 16.4085 3.67285L14.9548 5.126C13.8526 4.36305 12.5404 3.96171 11.2 3.97754C9.9762 3.98383 8.7762 4.31613 7.7235 4.94022C6.6708 5.56432 5.80343 6.45767 5.21066 7.52832L4.14145 6.69958L3.55645 6.24591C4.36122 4.94375 5.48644 3.8697 6.82461 3.12636C8.16278 2.38301 9.66921 1.99521 11.2 2ZM2.67941 13.9033C2.04009 12.0206 2.04009 9.97943 2.67941 8.09668L4.46164 9.47852C4.23377 10.4797 4.23377 11.5193 4.46164 12.5205L2.67941 13.9033ZM11.2 20C9.66918 20.0048 8.16274 19.6169 6.82455 18.8736C5.48637 18.1302 4.36114 17.0561 3.55637 15.7539L3.93478 15.4604L5.21066 14.4707C5.80317 15.5416 6.67046 16.4353 7.7232 17.0596C8.77593 17.6839 9.97606 18.0162 11.2 18.0225C12.3456 18.0359 13.4783 17.7787 14.5057 17.2717L16.1974 18.585C14.7096 19.5436 12.9695 20.0363 11.2 20ZM17.7259 17.2393L17.5429 17.0973L16.1655 16.028C16.8877 15.2477 17.3731 14.2782 17.5652 13.2325C17.592 13.0881 17.5867 12.9396 17.5497 12.7976C17.5127 12.6555 17.4448 12.5233 17.351 12.4104C17.2571 12.2975 17.1395 12.2067 17.0066 12.1444C16.8736 12.0821 16.7286 12.0498 16.5818 12.0498H12.2V10.1816H19.7488C19.783 10.5273 19.8001 10.8769 19.8001 11.2275C19.8585 13.4164 19.1216 15.5522 17.7258 17.2393H17.7259Z" fill="black"/>
</svg>
