<svg width="20" height="20" viewBox="0 0 20 20" fill="none" xmlns="http://www.w3.org/2000/svg">
<path d="M15.5917 6.00829C15.5142 5.93019 15.4221 5.86819 15.3205 5.82588C15.219 5.78358 15.11 5.7618 15 5.7618C14.89 5.7618 14.7811 5.78358 14.6796 5.82588C14.578 5.86819 14.4858 5.93019 14.4084 6.00829L8.20004 12.225L5.59171 9.60829C5.51127 9.53059 5.41632 9.4695 5.31227 9.4285C5.20823 9.38749 5.09713 9.36738 4.98531 9.36932C4.87349 9.37125 4.76315 9.39519 4.66058 9.43977C4.55802 9.48435 4.46524 9.54869 4.38754 9.62913C4.30984 9.70956 4.24875 9.80451 4.20774 9.90856C4.16674 10.0126 4.14663 10.1237 4.14856 10.2355C4.1505 10.3473 4.17444 10.4577 4.21902 10.5602C4.2636 10.6628 4.32794 10.7556 4.40837 10.8333L7.60837 14.0333C7.68584 14.1114 7.77801 14.1734 7.87956 14.2157C7.98111 14.258 8.09003 14.2798 8.20004 14.2798C8.31005 14.2798 8.41897 14.258 8.52052 14.2157C8.62207 14.1734 8.71424 14.1114 8.79171 14.0333L15.5917 7.23329C15.6763 7.15526 15.7438 7.06055 15.79 6.95513C15.8361 6.84972 15.86 6.73588 15.86 6.62079C15.86 6.50571 15.8361 6.39187 15.79 6.28646C15.7438 6.18104 15.6763 6.08633 15.5917 6.00829Z" fill="white"/>
</svg>
