<svg width="17" height="20" viewBox="0 0 17 20" fill="none" xmlns="http://www.w3.org/2000/svg">
<path d="M11.4399 3.19C11.818 2.75428 12.1062 2.24817 12.2881 1.70074C12.47 1.1533 12.542 0.575328 12.4999 0C11.3393 0.093687 10.2619 0.639556 9.49991 1.52C9.13501 1.94198 8.85849 2.43288 8.68672 2.96364C8.51495 3.49441 8.45143 4.05424 8.49991 4.61C9.06606 4.61472 9.6257 4.4891 10.1355 4.24286C10.6453 3.99662 11.0916 3.63637 11.4399 3.19ZM13.9599 10.63C13.9666 9.86374 14.1685 9.11182 14.5464 8.4452C14.9243 7.77859 15.4659 7.21926 16.1199 6.82C15.7071 6.22524 15.1615 5.73483 14.5262 5.38767C13.8909 5.04052 13.1834 4.84615 12.4599 4.82C10.8999 4.66 9.45991 5.73 8.62991 5.73C7.79991 5.73 6.62991 4.84 5.32991 4.86C4.48004 4.888 3.65193 5.13578 2.92636 5.57919C2.20079 6.02259 1.60252 6.64648 1.18991 7.39C-0.570088 10.45 0.739912 15 2.49991 17.47C3.29991 18.68 4.29991 20.05 5.61991 20C6.93991 19.95 7.36991 19.18 8.89991 19.18C10.4299 19.18 10.8999 20 12.1999 19.97C13.4999 19.94 14.4199 18.73 15.2599 17.52C15.855 16.6415 16.3198 15.6816 16.6399 14.67C15.8474 14.332 15.1712 13.7693 14.695 13.0513C14.2187 12.3333 13.9631 11.4916 13.9599 10.63Z" fill="black"/>
</svg>
