<svg width="52" height="52" viewBox="0 0 52 52" fill="none" xmlns="http://www.w3.org/2000/svg">
<path d="M27.2826 21.4325C32.7569 23.3646 38.6607 23.2573 44.0814 21.1641C44.135 18.9636 43.5447 16.7632 42.5249 14.7774L41.9882 13.7039C41.8272 13.7576 41.6125 13.865 41.5052 13.9723C36.5675 16.3338 30.9858 16.6558 25.7798 14.7774C22.1302 13.4893 18.1586 13.8113 14.7237 15.5287L13.6503 16.0654C13.704 16.2265 13.8113 16.4411 13.9186 16.5485C14.5627 17.9439 15.0994 19.4467 15.4751 21.0031C19.232 19.9297 23.4183 20.037 27.2826 21.4325Z" fill="white"/>
<path d="M13.9188 37.5872L15.0996 36.9432C17.4921 35.747 20.1314 35.1679 22.7502 35.2443C24.3611 35.2912 25.9643 35.5862 27.4974 36.1381C27.9968 36.3153 28.4979 36.478 29.0002 36.6263V42.3471C26.9222 41.9608 24.8186 41.9056 22.7502 42.1719C20.6045 42.4481 18.4968 43.0703 16.495 44.0277C16.3877 44.135 16.173 44.2424 16.012 44.296L15.4753 43.2226C14.5629 41.4515 14.0262 39.5194 13.9188 37.5872Z" fill="white"/>
<path d="M14.5623 32.6496C19.1243 30.7711 24.223 30.6101 28.8923 32.2739C33.186 33.7766 37.7479 34.045 42.0416 33.0789C41.9879 30.6638 42.3099 28.3023 43.1686 25.9408C37.5333 27.6045 31.4685 27.4435 25.8331 25.4577C22.6129 24.277 19.0706 24.277 15.8504 25.3504C15.9041 27.6582 15.4748 30.0197 14.6697 32.3275C14.6697 32.3275 14.616 32.4886 14.5623 32.6496Z" fill="white"/>
</svg>
