<svg width="42" height="42" viewBox="0 0 42 42" fill="none" xmlns="http://www.w3.org/2000/svg">
<path d="M21.626 16.946C26.0055 18.4917 30.7285 18.4058 35.0651 16.7313C35.108 14.9709 34.6357 13.2105 33.8199 11.6219L33.3906 10.7632C33.2618 10.8061 33.09 10.892 33.0041 10.9779C29.054 12.867 24.5886 13.1247 20.4238 11.6219C17.5042 10.5914 14.3269 10.849 11.579 12.223L10.7202 12.6524C10.7632 12.7812 10.849 12.9529 10.9349 13.0388C11.4502 14.1551 11.8795 15.3573 12.1801 16.6025C15.1856 15.7438 18.5346 15.8296 21.626 16.946Z" fill="#22C55E"/>
<path d="M10.9347 29.8698L11.8793 29.3546C13.7933 28.3976 15.9047 27.9343 17.9997 27.9954C19.2885 28.033 20.5711 28.269 21.7976 28.7105C22.1971 28.8523 22.5979 28.9824 22.9997 29.1011V33.6777C21.3374 33.3686 19.6545 33.3245 17.9997 33.5375C16.2832 33.7585 14.5971 34.2562 12.9956 35.0221C12.9097 35.108 12.738 35.1939 12.6092 35.2368L12.1798 34.3781C11.4499 32.9612 11.0206 31.4155 10.9347 29.8698Z" fill="#22C55E"/>
<path d="M11.4503 25.9197C15.0998 24.4169 19.1788 24.2881 22.9143 25.6191C26.3492 26.8213 29.9987 27.036 33.4336 26.2631C33.3907 24.331 33.6483 22.4418 34.3353 20.5526C29.827 21.8836 24.9752 21.7548 20.4669 20.1662C17.8907 19.2216 15.0569 19.2216 12.4807 20.0803C12.5237 21.9266 12.1802 23.8158 11.5361 25.662C11.5361 25.662 11.4932 25.7909 11.4503 25.9197Z" fill="#22C55E"/>
</svg>
